<mxfile host="app.diagrams.net" modified="2020-07-10T05:08:09.309Z" agent="5.0 (Windows NT 10.0; Win64; x64) AppleWebKit/537.36 (KHTML, like Gecko) Chrome/83.0.4103.116 Safari/537.36 Edg/83.0.478.56" etag="1S_znIB64TilOSxfBwCW" version="13.4.1" type="github">
  <diagram id="548megTz474zO9859vnw" name="Page-1">
    <mxGraphModel dx="3243" dy="2113" grid="1" gridSize="10" guides="1" tooltips="1" connect="1" arrows="1" fold="1" page="1" pageScale="1" pageWidth="827" pageHeight="1169" math="0" shadow="0">
      <root>
        <mxCell id="0" />
        <mxCell id="1" parent="0" />
        <mxCell id="gT7Rm--VZ4cZVHD1lHY0-5" value="" style="edgeStyle=orthogonalEdgeStyle;rounded=0;orthogonalLoop=1;jettySize=auto;html=1;" edge="1" parent="1" source="gT7Rm--VZ4cZVHD1lHY0-1" target="gT7Rm--VZ4cZVHD1lHY0-3">
          <mxGeometry relative="1" as="geometry" />
        </mxCell>
        <mxCell id="gT7Rm--VZ4cZVHD1lHY0-6" value="Alarm" style="edgeLabel;html=1;align=center;verticalAlign=middle;resizable=0;points=[];" vertex="1" connectable="0" parent="gT7Rm--VZ4cZVHD1lHY0-5">
          <mxGeometry x="-0.2391" y="3" relative="1" as="geometry">
            <mxPoint x="7.14" y="-7" as="offset" />
          </mxGeometry>
        </mxCell>
        <mxCell id="gT7Rm--VZ4cZVHD1lHY0-1" value="Alarm&lt;br&gt;Kafka input" style="shape=parallelogram;perimeter=parallelogramPerimeter;whiteSpace=wrap;html=1;fillColor=#f8cecc;strokeColor=#b85450;" vertex="1" parent="1">
          <mxGeometry x="-977" y="180" width="120" height="60" as="geometry" />
        </mxCell>
        <mxCell id="gT7Rm--VZ4cZVHD1lHY0-8" value="" style="edgeStyle=orthogonalEdgeStyle;rounded=0;orthogonalLoop=1;jettySize=auto;html=1;" edge="1" parent="1" source="gT7Rm--VZ4cZVHD1lHY0-3" target="gT7Rm--VZ4cZVHD1lHY0-7">
          <mxGeometry relative="1" as="geometry" />
        </mxCell>
        <mxCell id="gT7Rm--VZ4cZVHD1lHY0-11" value="Alert Doc" style="edgeLabel;html=1;align=center;verticalAlign=middle;resizable=0;points=[];" vertex="1" connectable="0" parent="gT7Rm--VZ4cZVHD1lHY0-8">
          <mxGeometry x="-0.2619" y="2" relative="1" as="geometry">
            <mxPoint x="207.17" y="-8" as="offset" />
          </mxGeometry>
        </mxCell>
        <mxCell id="gT7Rm--VZ4cZVHD1lHY0-3" value="Preprocess" style="rounded=0;whiteSpace=wrap;html=1;fillColor=#dae8fc;strokeColor=#6c8ebf;" vertex="1" parent="1">
          <mxGeometry x="-777" y="180" width="120" height="60" as="geometry" />
        </mxCell>
        <mxCell id="gT7Rm--VZ4cZVHD1lHY0-10" value="" style="edgeStyle=orthogonalEdgeStyle;rounded=0;orthogonalLoop=1;jettySize=auto;html=1;" edge="1" parent="1" source="gT7Rm--VZ4cZVHD1lHY0-7" target="gT7Rm--VZ4cZVHD1lHY0-9">
          <mxGeometry relative="1" as="geometry" />
        </mxCell>
        <mxCell id="gT7Rm--VZ4cZVHD1lHY0-7" value="Enrichment &amp;amp; Transform" style="rounded=0;whiteSpace=wrap;html=1;fillColor=#dae8fc;strokeColor=#6c8ebf;" vertex="1" parent="1">
          <mxGeometry x="-580" y="180" width="120" height="60" as="geometry" />
        </mxCell>
        <mxCell id="gT7Rm--VZ4cZVHD1lHY0-15" value="" style="edgeStyle=orthogonalEdgeStyle;rounded=0;orthogonalLoop=1;jettySize=auto;html=1;" edge="1" parent="1" source="gT7Rm--VZ4cZVHD1lHY0-9" target="gT7Rm--VZ4cZVHD1lHY0-14">
          <mxGeometry relative="1" as="geometry" />
        </mxCell>
        <mxCell id="gT7Rm--VZ4cZVHD1lHY0-9" value="ES Write" style="rounded=0;whiteSpace=wrap;html=1;fillColor=#dae8fc;strokeColor=#6c8ebf;" vertex="1" parent="1">
          <mxGeometry x="-370" y="180" width="120" height="60" as="geometry" />
        </mxCell>
        <mxCell id="gT7Rm--VZ4cZVHD1lHY0-18" value="" style="edgeStyle=orthogonalEdgeStyle;rounded=0;orthogonalLoop=1;jettySize=auto;html=1;" edge="1" parent="1" source="gT7Rm--VZ4cZVHD1lHY0-14" target="gT7Rm--VZ4cZVHD1lHY0-17">
          <mxGeometry relative="1" as="geometry" />
        </mxCell>
        <mxCell id="gT7Rm--VZ4cZVHD1lHY0-14" value="Incident Process" style="rounded=0;whiteSpace=wrap;html=1;fillColor=#dae8fc;strokeColor=#6c8ebf;" vertex="1" parent="1">
          <mxGeometry x="-170" y="180" width="120" height="60" as="geometry" />
        </mxCell>
        <mxCell id="gT7Rm--VZ4cZVHD1lHY0-12" value="Alarm" style="edgeLabel;html=1;align=center;verticalAlign=middle;resizable=0;points=[];" vertex="1" connectable="0" parent="1">
          <mxGeometry x="-619.9975862068966" y="200" as="geometry" />
        </mxCell>
        <mxCell id="gT7Rm--VZ4cZVHD1lHY0-27" value="" style="edgeStyle=orthogonalEdgeStyle;rounded=0;orthogonalLoop=1;jettySize=auto;html=1;" edge="1" parent="1" source="gT7Rm--VZ4cZVHD1lHY0-54" target="gT7Rm--VZ4cZVHD1lHY0-23">
          <mxGeometry relative="1" as="geometry" />
        </mxCell>
        <mxCell id="gT7Rm--VZ4cZVHD1lHY0-13" value="Create Incident" style="rounded=0;whiteSpace=wrap;html=1;fillColor=#dae8fc;strokeColor=#6c8ebf;" vertex="1" parent="1">
          <mxGeometry x="230" y="20" width="120" height="60" as="geometry" />
        </mxCell>
        <mxCell id="gT7Rm--VZ4cZVHD1lHY0-16" value="Alert Doc" style="edgeLabel;html=1;align=center;verticalAlign=middle;resizable=0;points=[];" vertex="1" connectable="0" parent="1">
          <mxGeometry x="-209.9966666666669" y="200" as="geometry" />
        </mxCell>
        <mxCell id="gT7Rm--VZ4cZVHD1lHY0-17" value="EPL&lt;br&gt;Matched" style="rhombus;whiteSpace=wrap;html=1;fillColor=#d5e8d4;strokeColor=#82b366;" vertex="1" parent="1">
          <mxGeometry x="20" y="180" width="100" height="60" as="geometry" />
        </mxCell>
        <mxCell id="gT7Rm--VZ4cZVHD1lHY0-21" value="" style="edgeStyle=orthogonalEdgeStyle;rounded=0;orthogonalLoop=1;jettySize=auto;html=1;exitX=1;exitY=0.5;exitDx=0;exitDy=0;entryX=0;entryY=0.5;entryDx=0;entryDy=0;" edge="1" parent="1" source="gT7Rm--VZ4cZVHD1lHY0-17" target="gT7Rm--VZ4cZVHD1lHY0-13">
          <mxGeometry relative="1" as="geometry">
            <mxPoint x="-40" y="220" as="sourcePoint" />
            <mxPoint x="20" y="220" as="targetPoint" />
          </mxGeometry>
        </mxCell>
        <mxCell id="gT7Rm--VZ4cZVHD1lHY0-22" value="No" style="edgeLabel;html=1;align=center;verticalAlign=middle;resizable=0;points=[];" vertex="1" connectable="0" parent="gT7Rm--VZ4cZVHD1lHY0-21">
          <mxGeometry x="0.5154" relative="1" as="geometry">
            <mxPoint x="3.45" y="-10.03" as="offset" />
          </mxGeometry>
        </mxCell>
        <mxCell id="gT7Rm--VZ4cZVHD1lHY0-23" value="Add EPL" style="rounded=0;whiteSpace=wrap;html=1;fillColor=#dae8fc;strokeColor=#6c8ebf;" vertex="1" parent="1">
          <mxGeometry x="620" y="20" width="120" height="60" as="geometry" />
        </mxCell>
        <mxCell id="gT7Rm--VZ4cZVHD1lHY0-58" value="" style="edgeStyle=orthogonalEdgeStyle;rounded=0;orthogonalLoop=1;jettySize=auto;html=1;strokeWidth=1;fillColor=#d5e8d4;strokeColor=#82b366;dashed=1;exitX=1;exitY=0.75;exitDx=0;exitDy=0;entryX=0.5;entryY=0;entryDx=0;entryDy=0;" edge="1" parent="1" source="gT7Rm--VZ4cZVHD1lHY0-24" target="gT7Rm--VZ4cZVHD1lHY0-39">
          <mxGeometry relative="1" as="geometry">
            <mxPoint x="630" y="390" as="targetPoint" />
          </mxGeometry>
        </mxCell>
        <mxCell id="gT7Rm--VZ4cZVHD1lHY0-24" value="EPL Manager" style="rounded=0;whiteSpace=wrap;html=1;fillColor=#d5e8d4;strokeColor=#82b366;" vertex="1" parent="1">
          <mxGeometry x="430" y="360" width="120" height="60" as="geometry" />
        </mxCell>
        <mxCell id="gT7Rm--VZ4cZVHD1lHY0-25" value="" style="edgeStyle=orthogonalEdgeStyle;rounded=0;orthogonalLoop=1;jettySize=auto;html=1;exitX=0;exitY=0.25;exitDx=0;exitDy=0;dashed=1;entryX=0.5;entryY=1;entryDx=0;entryDy=0;fillColor=#d5e8d4;strokeColor=#82b366;" edge="1" parent="1" source="gT7Rm--VZ4cZVHD1lHY0-24" target="gT7Rm--VZ4cZVHD1lHY0-17">
          <mxGeometry relative="1" as="geometry">
            <mxPoint x="-40" y="220" as="sourcePoint" />
            <mxPoint x="60" y="250" as="targetPoint" />
          </mxGeometry>
        </mxCell>
        <mxCell id="gT7Rm--VZ4cZVHD1lHY0-26" value="" style="edgeStyle=orthogonalEdgeStyle;rounded=0;orthogonalLoop=1;jettySize=auto;html=1;entryX=1;entryY=0.25;entryDx=0;entryDy=0;dashed=1;fillColor=#d5e8d4;strokeColor=#82b366;exitX=0.5;exitY=1;exitDx=0;exitDy=0;" edge="1" parent="1" source="gT7Rm--VZ4cZVHD1lHY0-23" target="gT7Rm--VZ4cZVHD1lHY0-24">
          <mxGeometry relative="1" as="geometry">
            <mxPoint x="460" y="180" as="sourcePoint" />
            <mxPoint x="70" y="190" as="targetPoint" />
            <Array as="points">
              <mxPoint x="680" y="375" />
            </Array>
          </mxGeometry>
        </mxCell>
        <mxCell id="gT7Rm--VZ4cZVHD1lHY0-32" value="" style="edgeStyle=orthogonalEdgeStyle;rounded=0;orthogonalLoop=1;jettySize=auto;html=1;" edge="1" parent="1" source="gT7Rm--VZ4cZVHD1lHY0-28" target="gT7Rm--VZ4cZVHD1lHY0-31">
          <mxGeometry relative="1" as="geometry" />
        </mxCell>
        <mxCell id="gT7Rm--VZ4cZVHD1lHY0-38" style="edgeStyle=orthogonalEdgeStyle;rounded=0;orthogonalLoop=1;jettySize=auto;html=1;exitX=0.5;exitY=1;exitDx=0;exitDy=0;dashed=1;entryX=0.5;entryY=0;entryDx=0;entryDy=0;fillColor=#d5e8d4;strokeColor=#82b366;" edge="1" parent="1" source="gT7Rm--VZ4cZVHD1lHY0-31" target="gT7Rm--VZ4cZVHD1lHY0-24">
          <mxGeometry relative="1" as="geometry">
            <mxPoint x="130" y="390" as="targetPoint" />
            <Array as="points">
              <mxPoint x="490" y="330" />
              <mxPoint x="490" y="330" />
            </Array>
          </mxGeometry>
        </mxCell>
        <mxCell id="gT7Rm--VZ4cZVHD1lHY0-28" value="Update Incident" style="rounded=0;whiteSpace=wrap;html=1;fillColor=#dae8fc;strokeColor=#6c8ebf;" vertex="1" parent="1">
          <mxGeometry x="230" y="240" width="120" height="60" as="geometry" />
        </mxCell>
        <mxCell id="gT7Rm--VZ4cZVHD1lHY0-29" value="" style="edgeStyle=orthogonalEdgeStyle;rounded=0;orthogonalLoop=1;jettySize=auto;html=1;entryX=0;entryY=0.5;entryDx=0;entryDy=0;exitX=1;exitY=0.5;exitDx=0;exitDy=0;" edge="1" parent="1" source="gT7Rm--VZ4cZVHD1lHY0-17" target="gT7Rm--VZ4cZVHD1lHY0-28">
          <mxGeometry relative="1" as="geometry">
            <mxPoint x="120" y="210" as="sourcePoint" />
            <mxPoint x="240" y="160" as="targetPoint" />
          </mxGeometry>
        </mxCell>
        <mxCell id="gT7Rm--VZ4cZVHD1lHY0-30" value="Yes" style="edgeLabel;html=1;align=center;verticalAlign=middle;resizable=0;points=[];" vertex="1" connectable="0" parent="gT7Rm--VZ4cZVHD1lHY0-29">
          <mxGeometry x="0.5154" relative="1" as="geometry">
            <mxPoint x="3.45" y="-10.03" as="offset" />
          </mxGeometry>
        </mxCell>
        <mxCell id="gT7Rm--VZ4cZVHD1lHY0-37" style="edgeStyle=orthogonalEdgeStyle;rounded=0;orthogonalLoop=1;jettySize=auto;html=1;exitX=1;exitY=0.5;exitDx=0;exitDy=0;entryX=0;entryY=0.5;entryDx=0;entryDy=0;" edge="1" parent="1" source="gT7Rm--VZ4cZVHD1lHY0-31" target="gT7Rm--VZ4cZVHD1lHY0-33">
          <mxGeometry relative="1" as="geometry">
            <Array as="points">
              <mxPoint x="810" y="270" />
              <mxPoint x="810" y="210" />
            </Array>
          </mxGeometry>
        </mxCell>
        <mxCell id="gT7Rm--VZ4cZVHD1lHY0-31" value="Update EPL" style="rounded=0;whiteSpace=wrap;html=1;fillColor=#dae8fc;strokeColor=#6c8ebf;" vertex="1" parent="1">
          <mxGeometry x="430" y="240" width="120" height="60" as="geometry" />
        </mxCell>
        <mxCell id="gT7Rm--VZ4cZVHD1lHY0-33" value="Incident&lt;br&gt;ES Write" style="rounded=0;whiteSpace=wrap;html=1;fillColor=#dae8fc;strokeColor=#6c8ebf;" vertex="1" parent="1">
          <mxGeometry x="880" y="180" width="120" height="60" as="geometry" />
        </mxCell>
        <mxCell id="gT7Rm--VZ4cZVHD1lHY0-36" value="" style="edgeStyle=orthogonalEdgeStyle;rounded=0;orthogonalLoop=1;jettySize=auto;html=1;exitX=1;exitY=0.5;exitDx=0;exitDy=0;entryX=0;entryY=0.5;entryDx=0;entryDy=0;" edge="1" parent="1" source="gT7Rm--VZ4cZVHD1lHY0-23" target="gT7Rm--VZ4cZVHD1lHY0-33">
          <mxGeometry relative="1" as="geometry">
            <mxPoint x="360" y="160" as="sourcePoint" />
            <mxPoint x="410" y="160" as="targetPoint" />
          </mxGeometry>
        </mxCell>
        <mxCell id="gT7Rm--VZ4cZVHD1lHY0-51" value="" style="edgeStyle=orthogonalEdgeStyle;rounded=0;orthogonalLoop=1;jettySize=auto;html=1;entryX=1;entryY=0.5;entryDx=0;entryDy=0;" edge="1" parent="1" source="gT7Rm--VZ4cZVHD1lHY0-39" target="gT7Rm--VZ4cZVHD1lHY0-49">
          <mxGeometry relative="1" as="geometry">
            <mxPoint x="740" y="580" as="targetPoint" />
          </mxGeometry>
        </mxCell>
        <mxCell id="gT7Rm--VZ4cZVHD1lHY0-59" value="No" style="edgeLabel;html=1;align=center;verticalAlign=middle;resizable=0;points=[];" vertex="1" connectable="0" parent="gT7Rm--VZ4cZVHD1lHY0-51">
          <mxGeometry x="0.3917" relative="1" as="geometry">
            <mxPoint x="-30.83" y="-10" as="offset" />
          </mxGeometry>
        </mxCell>
        <mxCell id="gT7Rm--VZ4cZVHD1lHY0-39" value="Advanced&lt;br&gt;EPL&lt;br&gt;Matched" style="rhombus;whiteSpace=wrap;html=1;fillColor=#d5e8d4;strokeColor=#82b366;" vertex="1" parent="1">
          <mxGeometry x="820" y="550" width="100" height="60" as="geometry" />
        </mxCell>
        <mxCell id="gT7Rm--VZ4cZVHD1lHY0-40" value="" style="edgeStyle=orthogonalEdgeStyle;rounded=0;orthogonalLoop=1;jettySize=auto;html=1;exitX=1;exitY=0.5;exitDx=0;exitDy=0;entryX=1;entryY=0.5;entryDx=0;entryDy=0;" edge="1" parent="1" source="gT7Rm--VZ4cZVHD1lHY0-33" target="gT7Rm--VZ4cZVHD1lHY0-39">
          <mxGeometry relative="1" as="geometry">
            <mxPoint x="200" y="220" as="sourcePoint" />
            <mxPoint x="260" y="220" as="targetPoint" />
            <Array as="points">
              <mxPoint x="1030" y="210" />
              <mxPoint x="1030" y="580" />
            </Array>
          </mxGeometry>
        </mxCell>
        <mxCell id="gT7Rm--VZ4cZVHD1lHY0-47" value="Alert Doc" style="edgeLabel;html=1;align=center;verticalAlign=middle;resizable=0;points=[];" vertex="1" connectable="0" parent="gT7Rm--VZ4cZVHD1lHY0-40">
          <mxGeometry x="0.6797" y="-4" relative="1" as="geometry">
            <mxPoint x="-13.530000000000001" y="-5.96" as="offset" />
          </mxGeometry>
        </mxCell>
        <mxCell id="gT7Rm--VZ4cZVHD1lHY0-43" value="默认规则：SELECT * FROM AlarmEvent (&lt;br&gt;&amp;nbsp; &amp;nbsp; &amp;nbsp; &amp;nbsp;(scene_type=&#39;ndr&#39; and direction_key=&#39;675_172.16.100.31_0&#39;) AND &lt;br&gt;&amp;nbsp; &amp;nbsp; &amp;nbsp; &amp;nbsp;(end_time &amp;gt;= 1594200181100) AND&lt;br&gt;&amp;nbsp; &amp;nbsp; &amp;nbsp; &amp;nbsp;(end_time &amp;lt;= 1594374066949)&lt;br&gt;)" style="text;html=1;align=left;verticalAlign=middle;whiteSpace=wrap;rounded=0;fillColor=#f5f5f5;strokeColor=#666666;fontColor=#333333;spacing=10;dashed=1;" vertex="1" parent="1">
          <mxGeometry x="-270" y="-70" width="430" height="90" as="geometry" />
        </mxCell>
        <mxCell id="gT7Rm--VZ4cZVHD1lHY0-45" value="" style="curved=1;endArrow=classic;html=1;dashed=1;" edge="1" parent="1" source="gT7Rm--VZ4cZVHD1lHY0-43" target="gT7Rm--VZ4cZVHD1lHY0-17">
          <mxGeometry width="50" height="50" relative="1" as="geometry">
            <mxPoint x="420" y="290" as="sourcePoint" />
            <mxPoint x="470" y="240" as="targetPoint" />
            <Array as="points">
              <mxPoint x="-70" y="120" />
              <mxPoint x="90" y="30" />
            </Array>
          </mxGeometry>
        </mxCell>
        <mxCell id="gT7Rm--VZ4cZVHD1lHY0-46" value="高级场景模型：检测到疑似 &quot;APT 29&quot;攻击事件&lt;br&gt;SELECT * FROM AlarmEvent (&lt;br&gt;&amp;nbsp; &amp;nbsp; &amp;nbsp; &amp;nbsp;(alarm_name=&#39;检测到钓鱼邮件攻击&#39;) AND&lt;br&gt;&amp;nbsp; &amp;nbsp; &amp;nbsp; &amp;nbsp;(group_field={group}) AND&amp;nbsp;&amp;nbsp;&lt;br&gt;&amp;nbsp; &amp;nbsp; &amp;nbsp; &amp;nbsp;(end_time &amp;gt;= 1594200181100) AND&lt;br&gt;&amp;nbsp; &amp;nbsp; &amp;nbsp; &amp;nbsp;(end_time &amp;lt;= 1594374066949)&lt;br&gt;)" style="text;html=1;align=left;verticalAlign=middle;whiteSpace=wrap;rounded=0;fillColor=#f5f5f5;strokeColor=#666666;fontColor=#333333;spacing=10;dashed=1;" vertex="1" parent="1">
          <mxGeometry x="690" y="750" width="430" height="130" as="geometry" />
        </mxCell>
        <mxCell id="gT7Rm--VZ4cZVHD1lHY0-48" value="" style="curved=1;endArrow=classic;html=1;dashed=1;exitX=0.5;exitY=0;exitDx=0;exitDy=0;entryX=0.5;entryY=1;entryDx=0;entryDy=0;" edge="1" parent="1" source="gT7Rm--VZ4cZVHD1lHY0-46" target="gT7Rm--VZ4cZVHD1lHY0-39">
          <mxGeometry width="50" height="50" relative="1" as="geometry">
            <mxPoint x="888.1199999999999" y="790.9899999999998" as="sourcePoint" />
            <mxPoint x="323.125" y="271.875" as="targetPoint" />
            <Array as="points">
              <mxPoint x="800" y="690" />
              <mxPoint x="960" y="650" />
            </Array>
          </mxGeometry>
        </mxCell>
        <mxCell id="gT7Rm--VZ4cZVHD1lHY0-62" value="" style="edgeStyle=orthogonalEdgeStyle;rounded=0;orthogonalLoop=1;jettySize=auto;html=1;strokeWidth=1;" edge="1" parent="1" source="gT7Rm--VZ4cZVHD1lHY0-49" target="gT7Rm--VZ4cZVHD1lHY0-61">
          <mxGeometry relative="1" as="geometry" />
        </mxCell>
        <mxCell id="gT7Rm--VZ4cZVHD1lHY0-49" value="Create Advanced Incident" style="rounded=0;whiteSpace=wrap;html=1;fillColor=#dae8fc;strokeColor=#6c8ebf;" vertex="1" parent="1">
          <mxGeometry x="560" y="490" width="120" height="60" as="geometry" />
        </mxCell>
        <mxCell id="gT7Rm--VZ4cZVHD1lHY0-54" value="Search Alarm &amp;amp; Update Incident" style="rounded=0;whiteSpace=wrap;html=1;fillColor=#dae8fc;strokeColor=#6c8ebf;" vertex="1" parent="1">
          <mxGeometry x="430" y="20" width="120" height="60" as="geometry" />
        </mxCell>
        <mxCell id="gT7Rm--VZ4cZVHD1lHY0-55" value="" style="edgeStyle=orthogonalEdgeStyle;rounded=0;orthogonalLoop=1;jettySize=auto;html=1;" edge="1" parent="1" source="gT7Rm--VZ4cZVHD1lHY0-13" target="gT7Rm--VZ4cZVHD1lHY0-54">
          <mxGeometry relative="1" as="geometry">
            <mxPoint x="350" y="50" as="sourcePoint" />
            <mxPoint x="620" y="50" as="targetPoint" />
          </mxGeometry>
        </mxCell>
        <mxCell id="gT7Rm--VZ4cZVHD1lHY0-65" value="" style="edgeStyle=orthogonalEdgeStyle;rounded=0;orthogonalLoop=1;jettySize=auto;html=1;strokeWidth=1;entryX=0;entryY=0.75;entryDx=0;entryDy=0;exitX=0.5;exitY=0;exitDx=0;exitDy=0;fillColor=#d5e8d4;strokeColor=#82b366;dashed=1;" edge="1" parent="1" source="gT7Rm--VZ4cZVHD1lHY0-60" target="gT7Rm--VZ4cZVHD1lHY0-24">
          <mxGeometry relative="1" as="geometry">
            <mxPoint x="220" y="410" as="targetPoint" />
          </mxGeometry>
        </mxCell>
        <mxCell id="gT7Rm--VZ4cZVHD1lHY0-60" value="Add EPL" style="rounded=0;whiteSpace=wrap;html=1;fillColor=#dae8fc;strokeColor=#6c8ebf;" vertex="1" parent="1">
          <mxGeometry x="160" y="490" width="120" height="60" as="geometry" />
        </mxCell>
        <mxCell id="gT7Rm--VZ4cZVHD1lHY0-63" value="" style="edgeStyle=orthogonalEdgeStyle;rounded=0;orthogonalLoop=1;jettySize=auto;html=1;strokeWidth=1;" edge="1" parent="1" source="gT7Rm--VZ4cZVHD1lHY0-61" target="gT7Rm--VZ4cZVHD1lHY0-60">
          <mxGeometry relative="1" as="geometry" />
        </mxCell>
        <mxCell id="gT7Rm--VZ4cZVHD1lHY0-61" value="Search Alarm &amp;amp; Update Incident" style="rounded=0;whiteSpace=wrap;html=1;fillColor=#dae8fc;strokeColor=#6c8ebf;" vertex="1" parent="1">
          <mxGeometry x="360" y="490" width="120" height="60" as="geometry" />
        </mxCell>
        <mxCell id="gT7Rm--VZ4cZVHD1lHY0-71" value="" style="edgeStyle=orthogonalEdgeStyle;rounded=0;orthogonalLoop=1;jettySize=auto;html=1;strokeWidth=1;" edge="1" parent="1" source="gT7Rm--VZ4cZVHD1lHY0-67" target="gT7Rm--VZ4cZVHD1lHY0-70">
          <mxGeometry relative="1" as="geometry" />
        </mxCell>
        <mxCell id="gT7Rm--VZ4cZVHD1lHY0-67" value="Update Advanced Incident" style="rounded=0;whiteSpace=wrap;html=1;fillColor=#dae8fc;strokeColor=#6c8ebf;" vertex="1" parent="1">
          <mxGeometry x="560" y="620" width="120" height="60" as="geometry" />
        </mxCell>
        <mxCell id="gT7Rm--VZ4cZVHD1lHY0-68" value="" style="edgeStyle=orthogonalEdgeStyle;rounded=0;orthogonalLoop=1;jettySize=auto;html=1;entryX=1;entryY=0.5;entryDx=0;entryDy=0;" edge="1" parent="1" target="gT7Rm--VZ4cZVHD1lHY0-67">
          <mxGeometry relative="1" as="geometry">
            <mxPoint x="820" y="580" as="sourcePoint" />
            <mxPoint x="690" y="530" as="targetPoint" />
          </mxGeometry>
        </mxCell>
        <mxCell id="gT7Rm--VZ4cZVHD1lHY0-69" value="Yes" style="edgeLabel;html=1;align=center;verticalAlign=middle;resizable=0;points=[];" vertex="1" connectable="0" parent="gT7Rm--VZ4cZVHD1lHY0-68">
          <mxGeometry x="0.3917" relative="1" as="geometry">
            <mxPoint x="-30.83" y="-10" as="offset" />
          </mxGeometry>
        </mxCell>
        <mxCell id="gT7Rm--VZ4cZVHD1lHY0-70" value="Update EPL" style="rounded=0;whiteSpace=wrap;html=1;fillColor=#dae8fc;strokeColor=#6c8ebf;" vertex="1" parent="1">
          <mxGeometry x="360" y="620" width="120" height="60" as="geometry" />
        </mxCell>
        <mxCell id="gT7Rm--VZ4cZVHD1lHY0-72" value="Add ES Search Task" style="rounded=0;whiteSpace=wrap;html=1;fillColor=#dae8fc;strokeColor=#6c8ebf;" vertex="1" parent="1">
          <mxGeometry x="-70" y="560" width="120" height="60" as="geometry" />
        </mxCell>
      </root>
    </mxGraphModel>
  </diagram>
</mxfile>
